<svg xmlns="http://www.w3.org/2000/svg" xmlns:svg="http://www.w3.org/2000/svg" id="svg8" width="1048" height="1048" version="1.1" viewBox="0 0 277.283 277.283"><metadata id="metadata5"/><g id="layer1"><path style="fill:#202225;stroke:#202225;stroke-width:.00585197;stroke-linecap:round;stroke-linejoin:round;paint-order:fill markers stroke" id="rect14" d="m 242.21005,28.772275 c -1.84394,0 -3.68789,0.722893 -5.10081,2.169415 L 89.941634,181.6084 45.766249,136.38269 l -0.01693,0.0178 -2.959371,-3.02974 c -1.614772,-1.65316 -3.72221,-2.47947 -5.82958,-2.47947 -2.107368,0 -4.214804,0.82631 -5.829579,2.47947 L 7.4483405,157.6163 c -3.2295459,3.30634 -3.2295476,8.63004 0,11.93637 l 51.9262415,53.16085 c 0.09624,0.11096 0.195486,0.22054 0.299374,0.3269 l 25.139467,25.73771 c 2.661869,2.72515 6.853135,2.8821 9.692552,0.47325 0.486241,-0.32135 0.947765,-0.699 1.374334,-1.13571 l 23.682451,-24.24553 c 0.38648,-0.39567 0.72568,-0.82075 1.01966,-1.26728 L 272.45084,67.12359 c 2.82586,-2.893046 2.82586,-7.55115 0,-10.444197 L 247.31087,30.94169 c -1.41292,-1.446522 -3.25686,-2.169415 -5.10082,-2.169415 z"/></g></svg>